<?xml version="1.0" encoding="utf-8"?>
<!-- Generator: Adobe Illustrator 24.1.1, SVG Export Plug-In . SVG Version: 6.00 Build 0)  -->
<svg version="1.1" id="OBJECTS" xmlns="http://www.w3.org/2000/svg" xmlns:xlink="http://www.w3.org/1999/xlink" x="0px" y="0px"
	 viewBox="0 0 130 70.29" style="enable-background:new 0 0 130 70.29;" xml:space="preserve">
<style type="text/css">
	.st0{fill:#0A472E;}
	.st1{fill:#BAC34E;}
</style>
<g>
	<g>
		<path class="st0" d="M28.23,25.55c-2.1,2.66-5.34,6.92-9.5,13.15c1.37,0.05,2.66,0.16,3.89,0.32c1.18,0.16,1.66,0.71,1.66,1.37
			c0,0.42-1.03,1.39-1.5,1.82c-0.55,0.61-0.61,1.18-1.39,1.18c-0.61,0-0.5-0.05-0.76-0.11c-0.68-0.03-1.76-0.08-3.08-0.08
			c-0.53,0-1.11,0.03-1.71,0.03c-3.39,5.29-9.18,14.29-9.5,14.86c-0.42,0.76-0.76,1.26-1.79,1.26c-0.29,0-0.63-0.05-1.05-0.13
			c-1.45-0.26-2.13-0.5-2.13-1.24c0-0.24,0.11-0.55,0.24-0.95c0.55-1.58,5.6-8.95,8.84-13.6c-3.76,0.18-7.34,0.45-8.47,0.55
			c-0.26,0.05-0.82,0.32-1.24,0.32C0.26,44.31,0,43.86,0,43.39c0-0.16,0.05-0.34,0.11-0.47c0.63-1.45,0.95-1.45,1.18-1.95
			c0.24-0.47,1.11-1.47,1.87-1.66c0.5-0.11,5.13-0.61,10.63-0.66c1.84-2.79,5.45-8.18,8.58-11.84c-2.32,0.42-6,0.89-12.08,0.89
			c-7.5,0-9.71-1.87-9.71-4.34c0-1.58,1.74-3.08,4.47-3.08c1.39,0,1.84,0.26,1.84,0.45c0,0.13-0.18,0.24-0.45,0.24
			c-1.08,0-1.76,0.82-1.76,1.26c0,0.42,1.66,1.18,8.13,1.18c6.1,0,10.68-0.45,14.08-0.97c2.47-2.05,4.79-3.45,7.97-3.45
			c1.1,0,1.84,0.42,2.26,1.03c0.24,0.34,0.45,0.66,0.47,1C37.6,22.29,34.25,25.13,28.23,25.55z M33.12,20.97
			c0.66-0.26,1.03-0.37,1.03-0.42C33.78,20.66,33.44,20.82,33.12,20.97z"/>
		<path class="st0" d="M39.62,47.13c-0.37,0.47-0.82,0.84-1.5,0.84c-1.13,0-1.74-1-1.74-2.03c0-1.53,1.03-3.03,1.95-4.1l-0.05-0.05
			c-1.37,0.11-8.5,7.6-9.81,9.05c-1.97,2.16-3.81,4.45-5.55,6.79c-0.34,0.47-1,1.13-1.61,1.13c-0.45,0-2.16-0.66-2.42-0.92
			c-0.18-0.11-0.18-0.26-0.18-0.42c0-0.92,1-2.24,1.58-3.24c2.26-3.95,4.58-7.81,6.89-11.68c0.76-1.26,1.39-2.58,2.32-3.74
			c0.89-1.13,2.6-1.5,4-1.5c0.53,0,0.63,0.58,0.63,1.03c0,1.24-2.63,4.84-3.39,6.08c2.47-2.79,6.58-7.05,10.58-7.05
			c1.39,0,2.47,0.92,2.47,2.37C43.78,41.18,40.65,45.76,39.62,47.13z"/>
		<path class="st0" d="M54.44,43.39c-0.84,0-0.95-0.42-0.95-1.18c0-0.26,0.05-0.47,0.11-0.68c-0.76,0.26-1.47,0.63-2.16,1.03
			c-0.87,0.47-4.47,2.84-4.47,3.81c0,0.21,0.42,0.21,0.53,0.21c1.42,0,2.6-0.87,3.95-0.87c0.16,0,0.37,0,0.53,0.05
			c0.45,0.24,1.13,1.32,1.13,1.74c0,0.45-0.58,0.89-0.92,1.18c-0.76,0.63-1.66,0.68-2.47,1.13c-1.08,0.61-5.55,3.08-5.55,4.26
			c0,1.84,2.1,2.05,3.5,2.05c3.84,0,7.5-3.63,9.92-5.45c0.16-0.11,0.39-0.26,0.61-0.26c0.68,0,0.68,1.6,0.68,2.08
			c0,0.45,0,0.97-0.16,1.42c-0.16,0.42-0.68,0.92-1.08,1.24c-2.53,2.05-6.39,4.58-10.66,4.58c-3.13,0-7.24-0.97-7.24-4.84
			c0-2.92,2.55-4.58,5.02-5.5c-1.45-0.66-1.58-1.68-1.58-3.08c0-5.18,8.73-8.89,13.21-8.89c0.92,0,2.66,0.47,2.66,1.61
			C59.04,41.36,56.78,43.39,54.44,43.39z"/>
		<path class="st0" d="M79.09,38.68c0,0.84-0.32,1.82-0.63,2.24c-0.68,0.92-2.66,2-4.21,2c-0.87,0-0.82-0.42-1.18-0.61
			c-0.18-0.08-0.26-0.29-0.26-0.5c0-0.45,0.39-0.53,0.63-1.26c-4.95,0.26-10.02,4.42-10.02,5.29c0,1,4.42,0.68,8.94,2.79
			c1.63,0.76,2.45,2.37,2.45,3.34c0,4.74-8.21,7.71-12.58,7.71c-3.81,0-5-1.79-5-3.13c0-1.89,1.08-3.66,2.16-3.66
			c0.66,0,1.29,0.05,1.29,0.55c0,0.13-0.03,0.29-0.03,0.42c0,0.97,0.95,1.61,1.42,1.61c4.42,0,8.02-1.66,8.02-2.84
			c0-0.97-3.6-1.37-7.05-2.39c-1.76-0.53-3.71-1.32-3.71-3.66c0-6.34,11.94-10.34,15.94-10.34c3.87,0,3.81,1.79,3.81,2.26V38.68z"/>
		<path class="st0" d="M100.93,52.78c0,0.45-0.05,0.87-0.18,1.13c-0.79,1.61-4.81,5.76-9.13,5.76c-2.6,0-4.34-1.11-4.34-3.84
			c0-3.55,4.47-11.02,6.1-13.84C90.46,44.05,80.2,55.68,78.01,58.7c-0.21,0.32-1.29,0.82-1.82,0.82c-0.58,0-0.97-0.45-1.24-0.45
			c-0.16,0-0.34-0.03-0.34-0.29c0-0.11,0.03-0.24,0.11-0.45c2.82-6.52,6.42-14.55,15.73-30.78c1.95-3.39,3.89-6.34,4.53-7.16
			c0.61-0.79,1.92-1.5,3.89-1.5c0.37,0,0.74,0.05,0.74,1.03c0,0.29-0.05,0.58-0.16,0.84c-0.42,0.82-10.13,15.31-15.42,26.02
			c2.92-3.55,8.58-9.42,11.92-9.42c0.58,0,1.5,0.26,1.89,0.42c0.74,0.29,0.89,1.03,0.89,1.79c0,1.34-6.84,13.1-6.84,15.18
			c0,0.71,0.32,1.05,0.92,1.05c0.21,0,0.45-0.05,0.71-0.13c1.55-0.42,5.6-4.58,6.08-5c0.21-0.16,0.39-0.24,0.58-0.24
			c0.29,0,0.53,0.21,0.55,0.5C100.8,51.28,100.93,52.07,100.93,52.78z"/>
		<path class="st0" d="M111.48,53.91c-1.84,3.76-6.42,5.87-9.29,5.87c-2.37,0-4.79-2.21-4.79-4.53c0-2.63,5.79-11.05,5.79-11.47
			c0-0.61-1.08-1.13-1.08-1.74c0-0.42,4.08-4.89,6.34-4.89c0.87,0,1.95,1.29,1.95,2.1c0,0.55-5.5,10.05-6.26,11.37
			c-0.63,1.05-1.97,2.95-1.97,4.21c0,0.74,0.68,0.89,1.34,0.89c3.18,0,6.63-5.31,7.45-5.31c0.74,0,0.68,1.89,0.68,2.37
			C111.64,53.15,111.64,53.57,111.48,53.91z M111.64,34.34c-1.03,0-1.55-0.53-1.55-1.55c0-2.1,2.1-4.47,4.26-4.47
			c0.95,0,1.55,0.53,1.55,1.5C115.9,31.76,113.64,34.34,111.64,34.34z"/>
		<path class="st0" d="M112.93,59.41c-2.55,0-4.31-2-4.31-4.37c0-9.6,10.44-17.63,15.34-17.63c1.58,0,2.45,0.82,2.45,1.13v0.16
			c0.37-0.05,0.68-0.05,0.89-0.05c1.24,0,2.71,0.82,2.71,2.76C130,46.73,120.5,59.41,112.93,59.41z M124.71,42.15
			c-0.53,0-0.92-0.26-0.92-1.34c-2.42,0.82-5.45,2.92-7.87,6.02c-2.26,2.92-3.32,5.63-3.34,7.21c0,0.92,0.37,1.47,1.08,1.47
			c1.18,0,4.31-1.55,7.5-5.55c2.89-3.63,4.1-6.24,4.1-7.29c0-0.34-0.13-0.53-0.37-0.53H124.71z"/>
	</g>
	<g>
		<path d="M44.68,69.86c-0.5-0.29-0.9-0.69-1.2-1.2c-0.29-0.51-0.44-1.1-0.44-1.76c0-0.66,0.15-1.25,0.44-1.76
			c0.29-0.51,0.69-0.91,1.2-1.2c0.5-0.28,1.07-0.43,1.69-0.43c0.63,0,1.19,0.14,1.7,0.43c0.5,0.29,0.9,0.69,1.2,1.2
			c0.29,0.51,0.44,1.1,0.44,1.76c0,0.66-0.15,1.25-0.44,1.76c-0.29,0.51-0.69,0.91-1.2,1.2s-1.07,0.43-1.7,0.43
			C45.75,70.29,45.18,70.14,44.68,69.86z M47.49,68.94c0.32-0.2,0.57-0.47,0.75-0.82c0.18-0.35,0.26-0.76,0.26-1.21
			c0-0.46-0.09-0.86-0.26-1.21c-0.18-0.35-0.43-0.63-0.75-0.82s-0.7-0.3-1.12-0.3c-0.43,0-0.8,0.1-1.12,0.3
			c-0.32,0.2-0.57,0.47-0.75,0.82c-0.18,0.35-0.26,0.76-0.26,1.21c0,0.46,0.09,0.86,0.26,1.21c0.18,0.35,0.42,0.63,0.75,0.82
			c0.32,0.2,0.7,0.3,1.12,0.3C46.79,69.23,47.17,69.13,47.49,68.94z"/>
		<path d="M51.73,63.6h2.29c0.5,0,0.94,0.09,1.31,0.26s0.66,0.42,0.87,0.75c0.2,0.32,0.31,0.7,0.31,1.13c0,0.42-0.1,0.78-0.29,1.08
			c-0.19,0.3-0.48,0.56-0.85,0.78v0.05l1.48,2.53h-1.32l-1.33-2.32h-1.29v2.32h-1.18V63.6z M54.1,66.83c0.38,0,0.67-0.1,0.89-0.29
			c0.22-0.19,0.33-0.46,0.33-0.81c0-0.35-0.11-0.61-0.32-0.8c-0.22-0.19-0.52-0.29-0.9-0.29h-1.2v2.19H54.1z"/>
		<path d="M59.94,69.85c-0.51-0.29-0.91-0.69-1.21-1.2c-0.29-0.51-0.44-1.1-0.44-1.75c0-0.65,0.15-1.24,0.44-1.75
			c0.29-0.51,0.69-0.92,1.2-1.21c0.51-0.29,1.07-0.43,1.69-0.43c0.75,0,1.39,0.19,1.92,0.57c0.53,0.38,0.87,0.9,1.02,1.56
			l-0.04,0.07l-1.09,0.08c-0.13-0.4-0.35-0.71-0.65-0.93c-0.3-0.22-0.69-0.33-1.16-0.33c-0.42,0-0.79,0.1-1.12,0.3
			c-0.33,0.2-0.58,0.48-0.75,0.83c-0.18,0.35-0.26,0.76-0.26,1.22c0,0.46,0.09,0.86,0.26,1.22c0.18,0.35,0.43,0.63,0.75,0.83
			s0.71,0.3,1.14,0.3c0.55,0,0.98-0.15,1.3-0.44c0.32-0.29,0.51-0.7,0.57-1.23h-2.46v-0.96h3.6v0.54c0,0.61-0.12,1.15-0.37,1.62
			c-0.25,0.47-0.6,0.84-1.05,1.11c-0.46,0.27-0.99,0.4-1.6,0.4C61.02,70.29,60.45,70.14,59.94,69.85z"/>
		<path d="M68.28,63.6h1.11l2.44,6.59h-1.23L70.17,69h-2.68l-0.4,1.2h-1.24L68.28,63.6z M69.81,67.97l-0.86-2.48l-0.1-0.72h-0.03
			l-0.11,0.72l-0.87,2.48H69.81z"/>
		<path d="M73.57,63.6h1.29l2.72,4.58l0.06,0.26h0.03V63.6h1.18v6.59h-1.29l-2.72-4.58l-0.06-0.26h-0.03v4.85h-1.18V63.6z"/>
		<path d="M81.07,63.6h1.18v6.59h-1.18V63.6z"/>
		<path d="M85.93,69.86c-0.51-0.28-0.91-0.68-1.21-1.2c-0.3-0.51-0.45-1.1-0.45-1.77c0-0.66,0.15-1.25,0.45-1.77
			c0.3-0.51,0.7-0.91,1.21-1.2c0.51-0.28,1.07-0.42,1.68-0.42c0.53,0,1,0.09,1.42,0.28c0.42,0.19,0.76,0.45,1.03,0.78
			c0.27,0.34,0.45,0.72,0.54,1.15l-0.04,0.07l-1.1,0.08c-0.12-0.41-0.34-0.74-0.67-0.97c-0.33-0.23-0.72-0.35-1.2-0.35
			c-0.43,0-0.8,0.1-1.12,0.3c-0.32,0.2-0.57,0.47-0.74,0.83c-0.17,0.35-0.26,0.76-0.26,1.21c0,0.45,0.09,0.85,0.26,1.21
			c0.18,0.35,0.42,0.63,0.75,0.83c0.32,0.2,0.7,0.3,1.13,0.3c0.46,0,0.86-0.12,1.18-0.35c0.32-0.23,0.54-0.56,0.67-0.97L90.54,68
			l0.05,0.07c-0.18,0.69-0.53,1.23-1.05,1.62c-0.52,0.39-1.17,0.59-1.93,0.59C87,70.29,86.44,70.15,85.93,69.86z"/>
		<path d="M96.59,70.02c-0.38-0.18-0.68-0.42-0.91-0.74c-0.23-0.32-0.36-0.69-0.4-1.11l0.04-0.05l1.1-0.1
			c0.04,0.4,0.19,0.7,0.46,0.92c0.27,0.22,0.59,0.33,0.98,0.33c0.36,0,0.66-0.09,0.89-0.28c0.23-0.19,0.35-0.45,0.35-0.79
			c0-0.35-0.13-0.62-0.38-0.79c-0.25-0.18-0.66-0.33-1.23-0.45c-0.63-0.14-1.11-0.35-1.45-0.63c-0.34-0.27-0.51-0.65-0.51-1.14
			c0-0.34,0.09-0.64,0.28-0.89c0.19-0.25,0.45-0.45,0.77-0.59s0.69-0.21,1.1-0.21c0.67,0,1.21,0.17,1.61,0.5
			c0.4,0.33,0.63,0.78,0.69,1.35l-0.05,0.06l-1.03,0.06c-0.04-0.33-0.17-0.59-0.38-0.76c-0.21-0.17-0.49-0.26-0.85-0.26
			c-0.3,0-0.55,0.06-0.73,0.19c-0.19,0.13-0.28,0.29-0.28,0.49c0,0.26,0.12,0.45,0.36,0.58c0.24,0.13,0.65,0.27,1.22,0.4
			c0.64,0.15,1.14,0.38,1.5,0.7c0.36,0.31,0.54,0.76,0.54,1.33c0,0.43-0.11,0.81-0.32,1.13c-0.21,0.32-0.51,0.57-0.88,0.75
			c-0.37,0.18-0.79,0.26-1.25,0.26C97.38,70.29,96.97,70.2,96.59,70.02z"/>
		<path d="M103.1,64.64h-1.67V63.6h4.51v1.04h-1.67v5.55h-1.18V64.64z"/>
		<path d="M108.73,69.86c-0.5-0.29-0.9-0.69-1.2-1.2c-0.29-0.51-0.44-1.1-0.44-1.76c0-0.66,0.15-1.25,0.44-1.76
			c0.29-0.51,0.69-0.91,1.2-1.2c0.5-0.28,1.07-0.43,1.69-0.43c0.63,0,1.19,0.14,1.7,0.43c0.5,0.29,0.9,0.69,1.2,1.2
			c0.29,0.51,0.44,1.1,0.44,1.76c0,0.66-0.15,1.25-0.44,1.76c-0.29,0.51-0.69,0.91-1.2,1.2s-1.07,0.43-1.7,0.43
			C109.8,70.29,109.23,70.14,108.73,69.86z M111.54,68.94c0.32-0.2,0.57-0.47,0.75-0.82c0.18-0.35,0.26-0.76,0.26-1.21
			c0-0.46-0.09-0.86-0.26-1.21c-0.18-0.35-0.43-0.63-0.75-0.82c-0.32-0.2-0.7-0.3-1.12-0.3c-0.43,0-0.8,0.1-1.12,0.3
			c-0.32,0.2-0.57,0.47-0.75,0.82c-0.18,0.35-0.26,0.76-0.26,1.21c0,0.46,0.09,0.86,0.26,1.21c0.18,0.35,0.42,0.63,0.75,0.82
			c0.32,0.2,0.7,0.3,1.12,0.3C110.84,69.23,111.22,69.13,111.54,68.94z"/>
		<path d="M115.78,63.6h2.29c0.5,0,0.94,0.09,1.31,0.26c0.37,0.18,0.66,0.42,0.87,0.75c0.2,0.32,0.31,0.7,0.31,1.13
			c0,0.42-0.1,0.78-0.29,1.08c-0.19,0.3-0.48,0.56-0.85,0.78v0.05l1.48,2.53h-1.32l-1.33-2.32h-1.29v2.32h-1.18V63.6z M118.15,66.83
			c0.38,0,0.67-0.1,0.89-0.29c0.22-0.19,0.33-0.46,0.33-0.81c0-0.35-0.11-0.61-0.32-0.8c-0.22-0.19-0.52-0.29-0.9-0.29h-1.2v2.19
			H118.15z"/>
		<path d="M122.77,63.6h4.16v1.04h-2.98v1.74h2.73v1.04h-2.73v1.74h3.09v1.04h-4.26V63.6z"/>
	</g>
	<g>
		<g>
			<path class="st1" d="M44.91,5.78c-0.05-0.05-0.12-0.07-0.19-0.07c-0.05,0-0.1,0.01-0.15,0.01c-0.01-0.02-0.02-0.03-0.03-0.05
				c-0.07-0.29-0.15-0.59-0.22-0.88c-0.02-0.07-0.06-0.12-0.12-0.16c0-0.04,0-0.09,0-0.16c0.03-1.03-1.8,0-1.75,0.84
				c0,0.16,0.01,0.32,0.01,0.49c0,0.02,0.01,0.03,0.01,0.04c0.22,4.58,0.09,8.77,2.12,13.09c0.19,0.41,0.57,0.43,0.95,0.26
				c0.03,0.05,0.04,0.11,0.08,0.15c0.41,0.42,0.48,0.61,1.01,0.65c0.03,0,0.07-0.01,0.1-0.01c0.42,0.23,0.83,0.46,1.24,0.7
				c0.65,0.38,1.41-0.76,1.47-1.26C50.01,14.46,47.57,9.81,44.91,5.78z"/>
			<path class="st1" d="M61.4,2.19c-2.84,1.05-4.82,3.68-6.48,6.08c-1.8,2.59-3.52,5.55-4.49,8.57c0,0,0,0,0.01,0
				c-0.1,0.35,0.21,0.37,0.5,0.22c0.17,0.64,1.68,0.19,2.07-0.65c0.34-0.72,0.73-1.39,1.15-2.06c0.33,0.24,1.2-0.04,1.54-0.49
				c1.5-1.98,2.99-3.93,3.99-6.2c0.42-0.57,0.84-1.13,1.27-1.68c0.41-0.53,0.32-0.89,0.03-1.03c0.36-0.7,0.71-1.42,1-2.17
				C62.18,2.27,61.89,2,61.4,2.19z M60.16,3.93c-0.29,0.49-0.59,0.98-0.91,1.45c-0.2,0.05-0.42,0.16-0.62,0.34
				c-1.21,1.06-2.23,2.28-3.19,3.54c-0.26,0.29-0.53,0.58-0.78,0.89C56.11,7.61,57.85,5.25,60.16,3.93z"/>
			<path class="st1" d="M90.47,11.81c-5.42-2.07-12.74-1.55-18.34-0.54c-6.18,1.12-11.79,5.03-16.97,8.48
				c-0.12,0.03-0.24,0.08-0.37,0.18c-0.17,0.14-0.35,0.28-0.52,0.42c-0.65,0.52-1.01,1.92,0.25,1.45c0.45-0.17,0.89-0.35,1.33-0.55
				c-0.03,0.33,0.08,0.64,0.45,0.84c5.53,3.01,12.78,0.8,18.48-0.6c5.77-1.41,11.99-3.32,15.74-8.22
				C90.79,12.88,91.08,12.04,90.47,11.81z M86.25,14.96c-0.31,0.03-0.62,0.07-0.93,0.1c0.5-0.52,0.92-1.26,0.91-1.74
				c0.54,0.12,1.07,0.25,1.57,0.4C87.32,14.18,86.8,14.59,86.25,14.96z M81.72,13.81c0.25-0.33,0.45-0.7,0.56-1.03
				c0.79,0.06,1.58,0.14,2.33,0.25C83.7,13.25,82.73,13.52,81.72,13.81z M73.65,13.15c-1.61,0.42-3.18,0.95-4.68,1.63
				c-1.01,0.22-2.01,0.47-3,0.74c1.27-0.64,2.6-1.2,4.01-1.6C71.09,13.61,72.33,13.35,73.65,13.15z M60.49,20.13
				c1.55-0.33,3.11-0.67,4.65-1.03c0.7,0.12,1.41,0.18,2.14,0.2c-0.26,0.42-0.41,0.87-0.31,1.19
				C64.76,20.74,62.54,20.71,60.49,20.13z"/>
		</g>
		<g>
			<path class="st0" d="M45.06,34.15c0.27-0.4,0.47-0.83,0.67-1.27c0.21-0.47,0.44-0.94,0.64-1.41c0.37-0.86,0.79-1.7,1.25-2.51
				c0.92-1.6,2.03-3.09,3.23-4.48c2.33-2.71,4.85-5.26,7.73-7.39c2.77-2.06,5.82-3.75,9.08-4.91c3.28-1.16,6.74-1.8,10.22-1.83
				c4.04-0.03,8.1,0.8,11.8,2.41c0.47,0.2,0.93,0.42,1.39,0.65c0.02-0.18,0.04-0.37,0.07-0.55c-1.65,1.87-3.36,3.71-5.29,5.3
				c-1.82,1.5-3.83,2.75-6.03,3.63c-1.21,0.48-2.47,0.85-3.74,1.13c-1.56,0.34-3.19,0.49-4.78,0.63c-3.24,0.3-6.52,0.34-9.74-0.13
				c-1.43-0.21-2.84-0.45-4.21-0.93c-1.16-0.4-2.42-0.88-3.38-1.67c-0.29-0.24-0.91,0.41-0.63,0.63c0.88,0.72,1.96,1.19,3.01,1.58
				c0.6,0.23,1.21,0.42,1.83,0.58c0.58,0.15,1.17,0.23,1.77,0.34c3.26,0.6,6.59,0.66,9.88,0.42c3.05-0.22,6.14-0.56,9.04-1.59
				c2.32-0.82,4.48-2.01,6.43-3.51c2.3-1.77,4.3-3.89,6.22-6.05c0.12-0.13,0.31-0.43,0.07-0.55c-3.73-1.86-7.93-2.94-12.11-3.06
				c-3.57-0.1-7.16,0.41-10.56,1.5c-3.36,1.07-6.54,2.68-9.43,4.68c-3,2.07-5.62,4.56-8.05,7.27c-2.57,2.86-4.8,6.01-6.07,9.67
				c-0.16,0.47-0.31,0.94-0.57,1.36C44.68,34.31,44.97,34.28,45.06,34.15L45.06,34.15z"/>
			<path class="st0" d="M44.99,34.13c1.33-2.13,2.29-4.46,3.09-6.84c0.78-2.31,1.36-4.7,1.7-7.12c0.57-3.97,0.56-8.37-1.57-11.91
				c-1.36-2.26-3.47-3.92-5.59-5.44c-0.28-0.2-0.74,0.26-0.65,0.55c1.05,3.4-0.66,6.93,0.26,10.35c0.14,0.53,0.36,1.04,0.56,1.56
				c0.16,0.41,0.33,0.82,0.52,1.22c0.49,1.03,1.09,2.02,1.82,2.9c1.04,1.24,2.35,2.24,3.83,2.91c0.3,0.13,0.84-0.52,0.49-0.68
				c-2.39-1.11-4.19-3.04-5.34-5.38c-0.4-0.82-0.75-1.68-1.05-2.54c-0.57-1.63-0.41-3.37-0.23-5.05c0.21-1.93,0.41-3.88-0.17-5.77
				C42.43,3.06,42.22,3.24,42,3.43c1.85,1.32,3.68,2.74,5.03,4.59c1.16,1.59,1.88,3.47,2.17,5.41c0.31,2.02,0.26,4.09,0.04,6.11
				c-0.25,2.34-0.74,4.64-1.4,6.89c-0.77,2.64-1.84,5.16-2.95,7.67C44.85,34.19,44.95,34.18,44.99,34.13L44.99,34.13z"/>
			<path class="st0" d="M49.24,21.94c0.11-1.69,0.4-3.34,0.92-4.95c0.53-1.64,1.3-3.2,2.2-4.67c1.86-3.02,4.21-5.71,6.73-8.19
				c1.3-1.28,2.65-2.5,4.03-3.69c-0.15,0-0.29-0.01-0.44-0.01c-0.01,1.88-0.29,3.74-0.91,5.52c-0.64,1.85-1.66,3.55-2.9,5.05
				c-1.15,1.39-2.49,2.63-3.97,3.67c-1.31,0.91-2.62,1.83-3.76,2.95c-0.65,0.64-1.25,1.35-1.68,2.15c-0.38,0.71-0.67,1.5-0.4,2.3
				c0.05,0.15,0.27-0.06,0.28-0.14c0.13-0.72,0.32-1.47,0.67-2.12c0.37-0.69,0.89-1.28,1.44-1.83c1.12-1.1,2.41-2.01,3.69-2.92
				c3.06-2.21,5.68-5.19,7.03-8.75c0.75-1.97,1.09-4.05,1.09-6.15c0-0.27-0.34-0.1-0.44-0.01c-2.61,2.26-5.12,4.65-7.36,7.28
				c-2.29,2.7-4.33,5.71-5.52,9.07c-0.62,1.75-1,3.64-0.79,5.49C49.15,22.04,49.24,21.97,49.24,21.94L49.24,21.94z"/>
			<path class="st0" d="M53.83,21.32c1.09-0.3,2.11-0.84,3.14-1.31c1.12-0.51,2.26-0.92,3.43-1.3c2.37-0.76,4.78-1.38,7.2-1.98
				c4.86-1.19,9.8-1.94,14.76-2.57c1.42-0.18,2.84-0.33,4.27-0.45c1.36-0.11,2.75-0.19,4.06-0.6c0.06-0.02,0.14-0.15,0.03-0.14
				c-1.25,0.16-2.49,0.34-3.74,0.45c-1.25,0.11-2.5,0.22-3.75,0.38c-2.46,0.3-4.91,0.63-7.35,1.03c-4.94,0.79-9.84,1.91-14.62,3.38
				c-1.27,0.39-2.54,0.8-3.76,1.33c-1.22,0.54-2.42,1.12-3.65,1.65C53.8,21.21,53.74,21.34,53.83,21.32L53.83,21.32z"/>
			<path class="st0" d="M53.85,21.07c1.03-0.38,1.95-1,2.87-1.59c0.99-0.63,1.99-1.22,3.04-1.74c2.24-1.11,4.57-2.02,6.95-2.78
				c1.19-0.38,2.43-0.64,3.65-0.9c1.22-0.26,2.45-0.49,3.69-0.7c2.5-0.41,5.02-0.71,7.55-0.88c1.42-0.1,2.84-0.16,4.26-0.1
				c0.73,0.03,1.46,0.08,2.19,0.16c0.74,0.08,1.48,0.22,2.22,0.25c0.04,0,0.12-0.09,0.06-0.1c-0.59-0.2-1.21-0.28-1.83-0.35
				c-0.65-0.08-1.31-0.14-1.97-0.17c-1.29-0.07-2.59-0.06-3.88,0.02c-2.51,0.15-5.02,0.41-7.51,0.78c-2.52,0.38-5.02,0.88-7.49,1.5
				c-1.19,0.3-2.36,0.74-3.5,1.16c-1.18,0.44-2.33,0.92-3.47,1.45c-1.19,0.55-2.34,1.14-3.44,1.86c-1.12,0.73-2.23,1.45-3.4,2.09
				C53.83,21.04,53.81,21.09,53.85,21.07L53.85,21.07z"/>
			<path class="st0" d="M54.26,20.76c0.96-0.64,1.87-1.35,2.82-2.02c0.92-0.65,1.86-1.28,2.82-1.88c1.96-1.21,4.03-2.25,6.22-2.97
				c4.68-1.53,9.66-2.39,14.59-2.25c1.33,0.04,2.66,0.08,3.99,0.16c1.37,0.08,2.7,0.32,4.06,0.49c0.04,0.01,0.13-0.09,0.07-0.11
				c-1.08-0.44-2.32-0.52-3.48-0.6c-1.21-0.09-2.43-0.12-3.65-0.17c-2.49-0.09-4.96,0.02-7.43,0.37c-2.48,0.35-4.93,0.94-7.33,1.67
				c-2.21,0.67-4.3,1.61-6.29,2.78c-1.09,0.64-2.15,1.34-3.18,2.07c-1.09,0.78-2.19,1.56-3.22,2.42
				C54.23,20.74,54.23,20.78,54.26,20.76L54.26,20.76z"/>
			<path class="st0" d="M53.75,21.16c1.2,0.09,2.42-0.03,3.61-0.18c1.27-0.16,2.54-0.39,3.79-0.66c2.5-0.54,4.98-1.19,7.48-1.74
				c2.63-0.57,5.28-1.08,7.92-1.64c1.36-0.29,2.72-0.59,4.07-0.91c1.23-0.29,2.44-0.64,3.68-0.89c1.23-0.25,2.48-0.43,3.71-0.7
				c1.13-0.25,2.38-0.53,3.35-1.2c0.09-0.06,0.13-0.25-0.03-0.19c-0.49,0.19-0.97,0.41-1.47,0.58c-0.52,0.17-1.05,0.31-1.59,0.43
				c-1.09,0.25-2.18,0.42-3.28,0.63c-1.18,0.22-2.34,0.54-3.51,0.82c-1.32,0.32-2.64,0.62-3.96,0.91c-2.62,0.57-5.25,1.09-7.87,1.69
				c-2.47,0.56-4.92,1.17-7.38,1.73c-1.38,0.32-2.77,0.62-4.18,0.85c-1.44,0.24-2.88,0.35-4.33,0.46
				C53.75,21.14,53.74,21.15,53.75,21.16L53.75,21.16z"/>
			<path class="st0" d="M90.92,13.44c-1.06,0.29-2,0.84-2.93,1.4c-1.02,0.62-2.03,1.2-3.14,1.65c-2.38,0.96-4.87,1.68-7.33,2.41
				c-4.79,1.43-9.69,2.55-14.72,2.55c-1.4,0-2.78-0.13-4.17-0.33c-0.7-0.1-1.4-0.2-2.1-0.27c-0.76-0.07-1.5-0.12-2.25,0.06
				c-0.07,0.02-0.28,0.25-0.13,0.28c0.62,0.12,1.24,0.1,1.86,0.15c0.65,0.05,1.31,0.13,1.96,0.2c1.25,0.15,2.48,0.29,3.74,0.32
				c2.49,0.06,4.98-0.19,7.44-0.6c2.47-0.41,4.9-1.01,7.29-1.72c1.22-0.36,2.43-0.78,3.64-1.16c1.21-0.38,2.41-0.77,3.59-1.23
				c1.27-0.49,2.49-1.04,3.64-1.77c1.15-0.72,2.28-1.52,3.59-1.91C90.93,13.46,90.94,13.43,90.92,13.44L90.92,13.44z"/>
			<path class="st0" d="M54.56,21.56c1.3,0,2.55,0.33,3.81,0.57c1.27,0.25,2.54,0.33,3.83,0.38c2.65,0.09,5.3,0.08,7.94-0.16
				c4.79-0.43,9.61-1.67,13.87-3.93c1.11-0.59,2.17-1.27,3.17-2.04c0.48-0.36,0.94-0.75,1.39-1.14c0.49-0.43,0.99-0.85,1.39-1.36
				c0.06-0.08-0.01-0.15-0.09-0.09c-0.46,0.32-0.85,0.72-1.27,1.09c-0.42,0.37-0.86,0.74-1.3,1.09c-0.87,0.68-1.79,1.3-2.75,1.85
				c-2.1,1.19-4.39,2.09-6.71,2.77c-2.3,0.68-4.66,1.13-7.05,1.38c-1.21,0.13-2.42,0.2-3.64,0.25c-1.37,0.05-2.72,0.12-4.09,0.1
				c-1.48-0.02-2.96-0.07-4.42-0.34c-1.35-0.25-2.73-0.56-4.1-0.42C54.56,21.55,54.55,21.56,54.56,21.56L54.56,21.56z"/>
			<path class="st0" d="M50.22,17.91c0.54-1.21,1.1-2.42,1.77-3.57c0.65-1.14,1.38-2.24,2.15-3.3c1.53-2.1,3.24-4.07,4.91-6.06
				c1.05-1.25,2.17-2.41,3.27-3.62c0.12-0.13,0-0.26-0.13-0.13c-0.97,1.07-1.98,2.1-2.92,3.2c-0.88,1.05-1.76,2.1-2.64,3.15
				c-1.65,1.99-3.27,4.04-4.57,6.29c-0.75,1.29-1.42,2.62-1.88,4.04C50.18,17.94,50.22,17.92,50.22,17.91L50.22,17.91z"/>
			<path class="st0" d="M62.34,0.5c-0.01,1.57-0.59,3.04-1.3,4.43c-0.34,0.67-0.73,1.32-1.1,1.97c-0.37,0.64-0.73,1.27-1.19,1.86
				c-1.83,2.38-4.35,4.09-6.28,6.36c-0.58,0.67-1.07,1.42-1.54,2.16c-0.47,0.75-0.97,1.48-1.41,2.25c-0.05,0.09,0.07,0.09,0.11,0.04
				c0.53-0.62,0.94-1.36,1.37-2.05c0.44-0.7,0.88-1.4,1.39-2.04c0.96-1.22,2.13-2.28,3.26-3.34c1.09-1.01,2.18-2.03,3.09-3.2
				c0.9-1.14,1.57-2.47,2.24-3.76c0.74-1.42,1.5-3.05,1.38-4.7C62.37,0.46,62.34,0.48,62.34,0.5L62.34,0.5z"/>
			<path class="st0" d="M62.77,0.88c-0.16-0.06-0.36,0.17-0.45,0.26c-0.31,0.3-0.58,0.64-0.84,0.99c-0.76,1-1.47,2.05-2.16,3.1
				c-0.58,0.87-1.14,1.76-1.72,2.63c-1.11,1.66-2.4,3.2-3.56,4.82c-0.74,1.03-1.48,2.05-2.08,3.16c-0.62,1.15-1.26,2.3-1.79,3.49
				c-0.02,0.06,0.04,0.04,0.07,0.01c0.63-0.9,1.09-1.9,1.59-2.87c0.52-1.01,1.09-1.97,1.74-2.9c1.26-1.82,2.61-3.58,3.91-5.38
				c0.51-0.7,0.96-1.45,1.43-2.18c0.68-1.04,1.36-2.09,2.09-3.11c0.33-0.47,0.67-0.94,1.05-1.38c0.12-0.14,0.48-0.65,0.71-0.61
				C62.77,0.91,62.79,0.88,62.77,0.88L62.77,0.88z"/>
			<path class="st0" d="M43.1,3.85c0.41,1.17,0.67,2.36,0.82,3.59c0.15,1.21,0.19,2.42,0.29,3.63c0.2,2.38,0.63,4.73,1.95,6.77
				c0.37,0.57,0.81,1.1,1.24,1.63c0.45,0.56,0.83,1.15,1.25,1.72c0.02,0.03,0.09-0.03,0.08-0.06c-0.21-0.54-0.6-1.02-0.96-1.47
				c-0.39-0.49-0.8-0.97-1.17-1.48c-0.74-1-1.27-2.13-1.62-3.32c-0.68-2.34-0.67-4.81-0.95-7.22c-0.15-1.29-0.37-2.61-0.89-3.81
				C43.13,3.79,43.09,3.83,43.1,3.85L43.1,3.85z"/>
			<path class="st0" d="M43.31,4.04c0.83,0.74,1.32,1.77,1.84,2.73c0.25,0.46,0.51,0.9,0.82,1.32c0.36,0.48,0.72,0.97,1.05,1.48
				c0.72,1.13,1.12,2.36,1.27,3.69c0.16,1.35,0.1,2.72,0.08,4.08c-0.01,0.76-0.04,1.52-0.02,2.27c0.01,0.38,0.03,0.76,0.04,1.15
				c0.01,0.36,0,0.73,0.09,1.08c0.03,0.1,0.18-0.04,0.19-0.09c0.14-0.67,0.02-1.39-0.02-2.07c-0.04-0.65-0.09-1.29-0.11-1.94
				c-0.05-1.39,0.02-2.78-0.11-4.17c-0.12-1.27-0.41-2.51-1.05-3.62c-0.6-1.04-1.42-1.93-2-2.98c-0.57-1.02-1.11-2.22-2.07-2.93
				C43.32,4.02,43.3,4.04,43.31,4.04L43.31,4.04z"/>
			<path class="st0" d="M43.21,3.64c0.22,0.12,0.36,0.56,0.46,0.77c0.18,0.39,0.35,0.79,0.51,1.2c0.44,1.05,0.96,2.06,1.42,3.1
				c0.29,0.65,0.58,1.3,0.83,1.96c0.24,0.63,0.39,1.3,0.51,1.96c0.26,1.36,0.45,2.73,0.68,4.1c0.12,0.75,0.25,1.49,0.36,2.24
				c0.11,0.77,0.13,1.57,0.34,2.33c0.02,0.06,0.11-0.03,0.11-0.07c0.06-0.76-0.08-1.52-0.19-2.27c-0.1-0.68-0.21-1.35-0.33-2.03
				c-0.23-1.34-0.4-2.69-0.68-4.03c-0.14-0.67-0.32-1.33-0.53-1.98c-0.22-0.68-0.54-1.35-0.83-2c-0.49-1.1-1.08-2.15-1.56-3.25
				c-0.2-0.45-0.39-0.91-0.61-1.36c-0.1-0.2-0.25-0.61-0.49-0.69C43.22,3.61,43.19,3.63,43.21,3.64L43.21,3.64z"/>
			<path class="st0" d="M43.1,3.33c0.38,1.12,0.77,2.23,1.09,3.36c0.33,1.18,0.61,2.37,0.87,3.56c0.52,2.41,1,4.83,1.67,7.2
				c0.37,1.3,0.72,2.7,1.5,3.83c0.03,0.04,0.11-0.04,0.11-0.08c-0.16-1.23-0.88-2.31-1.25-3.49c-0.36-1.17-0.7-2.35-0.98-3.54
				c-0.56-2.38-1.06-4.77-1.7-7.13c-0.35-1.27-0.72-2.56-1.28-3.75C43.12,3.3,43.1,3.32,43.1,3.33L43.1,3.33z"/>
		</g>
	</g>
</g>
</svg>
